<?xml version="1.0" encoding="UTF-8"?>
<svg id="Capa_2" width="50px" data-name="Capa 2" xmlns="http://www.w3.org/2000/svg" viewBox="0 0 395.56 391.88">
  <defs>
    <style>
      .cls-1 {
        fill: #e6e6e6;
      }

      .cls-2 {
        fill: #c20000;
      }
    </style>
  </defs>
  <g id="Capa_1-2" data-name="Capa 1">
    <g>
      <path class="cls-1" d="m.19,196.17c0,3.87-.48,7.81.1,11.59,1.29,8.46,1.8,17,3.47,25.44,2.04,10.32,4.93,20.37,8.53,30.17,3.15,8.56,7.14,16.8,11.33,24.95,6.17,12.02,13.85,23.14,22.28,33.45,5.34,6.53,11.62,12.67,18.16,18.39,11.22,9.8,23.05,18.59,35.94,25.99,10.74,6.16,22,11.19,33.74,15.14,9.88,3.33,19.95,5.89,30.25,7.61,6.66,1.11,13.36,1.61,20.06,2.31,12.78,1.32,25.46.54,38.08-1.02,9.38-1.16,18.66-3.12,27.84-5.71,11.32-3.2,22.43-6.78,33.04-11.89,15.83-7.63,30.5-17,43.69-28.66,11.51-10.17,22.14-21.13,31.3-33.5,8.19-11.06,14.86-22.96,20.49-35.51,3.03-6.76,5.52-13.68,7.81-20.7,2.95-9.04,4.96-18.26,6.24-27.71,1.04-7.64,2.15-15.27,2.67-22.95.55-8.16.54-16.33-.67-24.47-1.15-7.72-2.02-15.5-3.37-23.18-1.79-10.2-4.95-20.05-8.71-29.68-5.46-13.94-12.25-27.21-20.69-39.61-5.48-8.05-11.65-15.52-18.03-22.89-6.22-7.18-13.6-13.08-20.49-19.47-5.38-4.98-12.04-8.6-18.2-12.71-12.55-8.39-26.12-14.74-40.31-19.81-10.52-3.76-21.27-6.52-32.32-8.35-8.44-1.4-16.89-2.85-25.38-3.25-9.51-.45-19.07.28-28.6,1.05-10.14.83-20.22,2.15-29.97,4.77-18.59,5.01-36.3,12.2-52.92,22.2-21.14,12.71-39.4,28.56-54.35,48.09-17.93,23.44-30.42,49.5-36.59,78.53C1.68,168.46.18,182.21.19,196.17Z"/>
      <path d="m.19,196.17c0-13.96,1.5-27.71,4.41-41.39,6.18-29.03,18.66-55.08,36.59-78.53,14.94-19.53,33.2-35.38,54.35-48.09,16.62-9.99,34.33-17.19,52.92-22.2,9.75-2.63,19.83-3.95,29.97-4.77,9.54-.78,19.09-1.5,28.6-1.05,8.49.4,16.94,1.85,25.38,3.25,11.06,1.83,21.8,4.59,32.32,8.35,14.19,5.07,27.76,11.42,40.31,19.81,6.16,4.12,12.82,7.73,18.2,12.71,6.89,6.39,14.27,12.29,20.49,19.47,6.38,7.37,12.55,14.84,18.03,22.89,8.44,12.4,15.23,25.67,20.69,39.61,3.77,9.63,6.92,19.48,8.71,29.68,1.35,7.69,2.22,15.46,3.37,23.18,1.21,8.13,1.23,16.31.67,24.47-.52,7.68-1.63,15.31-2.67,22.95-1.28,9.45-3.29,18.67-6.24,27.71-2.29,7.02-4.78,13.94-7.81,20.7-5.63,12.55-12.3,24.45-20.49,35.51-9.16,12.36-19.79,23.33-31.3,33.5-13.19,11.66-27.86,21.03-43.69,28.66-10.61,5.11-21.72,8.69-33.04,11.89-9.17,2.59-18.45,4.56-27.84,5.71-12.62,1.55-25.3,2.34-38.08,1.02-6.7-.69-13.39-1.2-20.06-2.31-10.31-1.72-20.37-4.28-30.25-7.61-11.73-3.95-23-8.98-33.74-15.14-12.89-7.4-24.72-16.19-35.94-25.99-6.55-5.72-12.82-11.86-18.16-18.39-8.44-10.31-16.12-21.43-22.28-33.45-4.18-8.15-8.18-16.4-11.33-24.95-3.6-9.8-6.49-19.84-8.53-30.17-1.67-8.44-2.18-16.98-3.47-25.44-.57-3.78-.1-7.72-.1-11.59Zm77.26,120.79c.35,0,.7,0,1.05-.01,1.11-2.99,2.42-5.93,3.28-8.99,1.43-5.07,2.93-10.14,4.24-15.23,1.56-6.09,4.02-11.91,5.11-18.18.52-3,.56-7.26,4.51-8.64,9.72-3.39,19.51-6.57,29.26-9.85,1.77-.59,2.94-1.54,2.8-3.76-.13-2.04-.43-3.73-2.69-4.33-7.05-1.87-12.68-5.68-16.48-12.02-.46-.76-.95-2.22-2.14-1.4-1.29.89.12,1.86.64,2.41,2.42,2.6,1.73,4.24-1.16,5.87-1.22.68-2.6.42-3.75,1.39-1.46,1.23-2.12.35-2.23-1.33-.18-2.95-.1-5.89-.55-8.88-.57-3.84-2.68-3.5-5.26-3.17-3.32.42-6.64.93-9.97,1.22-1.9.16-3.51-.69-2.49-2.86,1.76-3.74,1.63-7.93,3.21-11.72,1.55-3.71.72-4.76-3.09-6.34-4.48-1.85-9.3-2.43-13.81-4.1-1.54-.57-3.99-1.51-2.2-3.43,1.12-1.19,2.06-2.61,3.19-3.8,3.51-3.72,7.41-7.01,11.11-10.52,1.07-1.02,1.16-1.71.22-2.77-6.11-6.87-12.8-12.69-22.69-12.87-1.32-.02-2.44-.59-3.39-1.34-.87-.68-1.11-1.43.19-2.28,6.47-4.26,12.83-8.67,19.28-12.95,4.27-2.84,4.53-4.08,2.22-8.54-4.2-8.12-10.94-14-17.3-20.24-.48-.47-1.57-.64-1.08-1.64.35-.7,1.09-.87,1.91-.93,9.66-.73,19.3-1.59,28.97-2.22,5.17-.33,5.63-.91,4.47-6.02-1.64-7.19-3.41-14.3-7.31-20.66-.42-.68-.86-1.38-.46-2.06.56-.94,1.29-.08,1.96.05,8.01,1.54,15.88,3.42,22.75,8.17,1.26.88,2.73,1.55,3.59-.63,1.45-3.66,2.8-7.34,3.91-11.14,1.91-6.53,2.62-13.22,3.13-20.51,8.42,6.89,14.23,15.31,20.22,23.43,2.36,3.2,3.32,2.52,5.09.37,6.93-8.4,15.33-14.81,25.15-19.57,3.01-1.46,3.3-.84,3.26,1.99-.09,6.49-.05,12.99.08,19.48.08,3.83,1.25,7.5,2.13,11.19.39,1.63,1.14,2.09,3.15,1.81,3.5-.49,6.44-2.26,9.67-3.32,4.3-1.42,8.49-3.15,12.71-4.78.85-.33,1.79-.63,2.49-.04.95.81-.1,1.61-.42,2.28-1.07,2.23-2.23,4.42-3.49,6.55-3.38,5.69-6.91,11.29-10.23,17.01-.94,1.62-2.28,3.46,1.52,3.94,7.55.93,15.03,2.43,22.54,3.65.85.14,1.79-.12,2.25.9.6,1.33-.77,1.31-1.3,1.83-5.3,5.21-10.63,10.39-15.94,15.59-3.67,3.59-3.22,4.72,1.46,6.45,6.23,2.3,12.4,4.84,18.46,8.1-2.77,1.89-5.05,4-7.74,5.19-6.79,3-13.27,6.81-20.68,8.35-.95.2-2.2.54-2.42,1.95-.24,1.49.58,2.47,1.68,3.07,4.35,2.36,7.77,6.25,12.72,7.62.58.16,1.08.59,1.6.93,1.32.86,1.98,1.27.13,2.77-4.01,3.25-8.49,5.14-13.42,6.17-3.63.76-4.3,1.84-3.02,5.29,1.02,2.76,2.52,5.34,3.08,8.29.26,1.4.16,2.1-1.46,2.2-2.47.15-4.92.52-7.39.72-3.18.26-4.4,2.44-2.63,5.07.96,1.42,2.3,2.57,3.44,3.86,2.35,2.68,2.01,2.99-1.05,4.54-3.83,1.93-8.61,1.86-11.57,5.58-1.25,1.57-2.12,3.29-3.96,4.6-3.05,2.17-6.34,3.74-9.6,5.41-3.2,1.64-1.27,4.39-1.39,6.55-.08,1.43,2.35,2.92,3.26,2.46,1.53-.78,2.46.09,3.43.42,5.37,1.8,10.68,3.66,16.36,4.43,4.63.63,8.73,1.72,9.88,7.72,1.37,7.22,3.83,14.24,5.95,21.3,4.08,13.53,7.98,27.12,11.21,40.88,1.59,6.77,3.64,13.42,4.61,20.89,3.4-3.4,2.46-7.35,2.71-10.65.88-11.76,3.91-22.74,9.69-33.01,2.84-5.05,3.69-5.37,9.29-2.76,3.87,1.8,9.68,2.76,12.1,1.81-8.47-3.19-16.89-5.9-23.75-11.77-6.76-5.78-12.39-12.37-15.65-20.84-.45,1.51-.41,2.79.35,4.03,1.27,2.08.82,2.77-1.75,2.55-4.92-.41-8.32-3.46-9.88-7.38-1.48-3.71-.95-8.24,2.62-11.3,2.27-1.94,3.03-3.77.84-6.21-.56-.62-.8-1.52-1.31-2.2-4.91-6.57-6.04-13.47-2.84-21.27,1.93-4.72,4.26-9.57,3.26-14.97-.74-4.02,1.62-6.84,3.68-9.65,4.23-5.77,8.45-11.54,13.51-16.67,3.96-4.01,8.05-7.67,13.13-10.34,9.21-4.83,19.1-6.76,29.26-7.92,6.39-.73,12.87-.41,18.97,1.12,8.53,2.13,15.9,7.29,23.84,11.01,1.27.6,2.53,1.79,3.19,3.03,1.88,3.54,5.21,5.8,7.31,9.26,5.51,9.1,12.6,17.42,11.61,29.08-.04.45.33.93.42,1.41,1.35,7.17,2.21,14.54.72,21.61-1.15,5.43-2.62,10.31,1.18,15.14.41.52.49,1.38.55,2.09.57,6.56-2.9,11.51-9.49,13.51-1.78.54-3.09,1.78-3.95,3.2-3.98,6.61-9.55,11.62-15.67,16.14-1.27.94-2.52,2.27-.96,3.99,6.16,6.77,8.24,15.24,10.02,23.84.16.78-.05,2.04,1.28,1.61,1.13-.36.5-1.3.34-2.17-.55-3.04-.27-5.59,2.63-7.88,2.04-1.61,4.11-3.36,6.08-5.14,5.13-4.65,9.45-10.03,14.05-15.16,3.48-3.89,6.68-8.1,9.51-12.49,8.56-13.32,15.84-27.27,20.82-42.41,4.69-14.29,7.19-28.93,8.15-43.84.5-7.68.09-15.38-.55-23.11-.91-11.07-2.85-21.76-5.86-32.48-3.5-12.42-8.49-24.09-14.58-35.33-7.03-12.95-15.78-24.71-26.01-35.34-5.67-5.89-11.98-11.02-18.32-16.18-10.12-8.24-21.19-14.86-32.97-20.25-9.94-4.54-20.19-8.39-30.93-10.72-7.33-1.59-14.67-3.02-22.17-3.73-4.58-.43-9.15-.7-13.73-.95-5.1-.28-10.44-1.23-15.27-.13-6.08,1.38-12.24,1.73-18.31,2.46-11.4,1.36-21.94,5.42-32.55,9.1-8.11,2.81-15.99,6.6-23.27,11.32-6.75,4.37-13.85,8.37-19.92,13.56-6.54,5.6-13.13,11.18-18.95,17.71-9.14,10.26-17.56,21.04-24.1,33.01-10.26,18.79-17.2,38.77-19.26,60.34-1.21,12.66-1.8,25.23-.72,37.94.98,11.61,3.29,22.86,6.63,33.99,4.81,16.02,12.23,30.79,21.44,44.62,4.89,7.34,10.47,14.24,16.7,20.62,2.01,2.07,6.3,3.52,4.17,8.25Zm169.47-88.24c-.14,6.87-4.69,8.73-9.83,10.21-6.74,1.95-13.53,3.19-20.57,2.95-1.47-.05-3.35-.37-3.36,1.83,0,2.3-.16,4.56.45,6.94,2.06,8.08,12.2,15.4,21.75,14.68,8.17-.62,16.49-5.61,18.83-13.35,2.52-8.35,1.69-16.97-7.27-23.27Zm38.68,35.69c1.76.69,3.89-.26,5.96-.8,10.64-2.77,14.9-10.48,15.34-19.59.08-1.62-.44-2.19-2.08-2.16-3.94.07-7.86-.11-11.8-.63-5.32-.69-10.46-1.87-15.43-3.83-2.38-.94-4.41-2.55-5.02-4.96-.71-2.8-1.71-2.25-3.1-.79-3.82,4.01-5.7,9.14-5.27,14.34.89,10.73,11.02,19.03,21.41,18.42Zm-167.04-115.47c-2.06-.11-4.43-.36-6.56.93-6.69,4.06-9.65,10.34-8.38,18.16.38,2.35,1.28,3.9,4.47,3.17,7.35-1.69,14.77-2.05,22.18.12,1.95.57,3.4.37,4.3-2.46,2.92-9.19-4.14-21.06-16-19.92Zm24.74,14.05c-.01,5.49,0,5.24,5.45,5.55,6.8.38,13.6.97,20.26,2.63,1.74.43,4.03,1.39,5.11-1.28,1.09-2.69,2.02-6.08-.3-7.93-6.48-5.14-14.1-7.76-22.47-7-7.14.65-8.03,1.79-8.05,8.02Zm-27.59,154.35c-1.97-3.19-4.13-5.77-6.87-7.39-2.62-1.55-2.65-3.41-1.96-5.63.99-3.17,2.16-6.28,3.43-9.35,3.82-9.24,5.84-19.24,11.56-27.68.39-.57.59-1.22-.07-1.61-.82-.5-1.29-.03-1.67.8-1.91,4.12-4.26,8.08-5.76,12.34-2.27,6.48-4.81,12.85-7.11,19.31-1.22,3.41-3.86,7.26-1.54,10.65,2.36,3.44,5.58,6.54,9.99,8.56Zm-20.75-121.49c-.11.34-.32.67-.33,1.01-.13,9.92,3.51,19.04,6.08,28.39.2.73.69,1.07,1.37.87,1.11-.32.61-1.07.39-1.77-1.14-3.64-2.3-7.28-3.36-10.95-1.67-5.75-3.14-11.55-4.16-17.55Zm30.07,104.04c.38.01.76.03,1.15.04v-27.23c-1.62,2.33-2.49,18.45-1.15,27.19Zm37.55,10.24c-.27-11.03-.62-22.05-3.37-32.83,1.38,10.92.95,22.02,3.37,32.83Zm-1.88-48.01c2.46,4.07,4.95,8.11,7.33,12.22.39.67.5,1.6,1.44,1.08.81-.45.5-1.48.1-2-2.94-3.82-4.38-8.72-8.87-11.29Zm105.49,49.52c-5.26-1.44-10.66.43-15.86-1.24-.49-.16-.99.22-.94.83.05.57.51.82,1.04.82,5.26,0,10.54.58,15.76-.41Zm-85.15-10.44c1.19,4.1,1.32,7.84-2.6,10.53-.14.1-.09.77.09,1.01.43.58.84.03,1.24-.16,4.55-2.19,5.37-7.28,1.27-11.37Zm-4.33-11.54c.26,2.61.49,5.18,1.92,7.43.27.42.39,1.03.94.89.57-.14.95-.55.87-1.36-.28-2.83-1.95-4.9-3.73-6.96Zm-1.06,25.96c-2.68-.69-3.71,1.72-5.37,2.97-.54.4-.81.98-.33,1.58.57.7,1.1.08,1.61-.17,1.91-.94,2.65-3.01,4.09-4.37Zm-56.99,3.71c-.3,1.78.3,3.83-1.71,4.92-.41.22-.7.78-.24,1.23.21.21.78.36.97.22,1.18-.84,2.43-1.75,2.88-3.15.48-1.47-.26-2.58-1.9-3.23Zm66.1,16.85c-1.77-2.24-3.45-4.7-6.32-5.81,1.65,2.39,3.69,4.37,6.32,5.81Z"/>
      <path class="cls-2" d="m77.45,316.96c2.12-4.72-2.16-6.18-4.17-8.25-6.22-6.38-11.8-13.28-16.7-20.62-9.21-13.83-16.63-28.6-21.44-44.62-3.34-11.14-5.65-22.39-6.63-33.99-1.08-12.71-.49-25.28.72-37.94,2.06-21.57,9-41.55,19.26-60.34,6.54-11.97,14.96-22.74,24.1-33.01,5.82-6.54,12.41-12.12,18.95-17.71,6.07-5.19,13.17-9.19,19.92-13.56,7.28-4.72,15.16-8.51,23.27-11.32,10.61-3.68,21.15-7.75,32.55-9.1,6.07-.72,12.23-1.07,18.31-2.46,4.83-1.1,10.17-.16,15.27.13,4.58.25,9.16.53,13.73.95,7.5.7,14.84,2.14,22.17,3.73,10.74,2.33,20.99,6.17,30.93,10.72,11.78,5.39,22.86,12.01,32.97,20.25,6.33,5.16,12.65,10.29,18.32,16.18,10.23,10.63,18.98,22.38,26.01,35.34,6.09,11.24,11.09,22.9,14.58,35.33,3.01,10.71,4.95,21.41,5.86,32.48.64,7.73,1.05,15.43.55,23.11-.96,14.91-3.46,29.55-8.15,43.84-4.98,15.14-12.26,29.09-20.82,42.41-2.82,4.39-6.02,8.6-9.51,12.49-4.59,5.12-8.92,10.51-14.05,15.16-1.97,1.78-4.04,3.53-6.08,5.14-2.9,2.29-3.18,4.84-2.63,7.88.16.87.79,1.81-.34,2.17-1.33.43-1.12-.82-1.28-1.61-1.78-8.6-3.85-17.07-10.02-23.84-1.56-1.72-.31-3.05.96-3.99,6.12-4.52,11.68-9.53,15.67-16.14.86-1.42,2.17-2.66,3.95-3.2,6.59-2,10.06-6.95,9.49-13.51-.06-.71-.14-1.57-.55-2.09-3.81-4.83-2.33-9.71-1.18-15.14,1.5-7.07.64-14.44-.72-21.61-.09-.48-.46-.95-.42-1.41,1-11.66-6.09-19.98-11.61-29.08-2.1-3.46-5.42-5.72-7.31-9.26-.66-1.24-1.91-2.43-3.19-3.03-7.94-3.72-15.31-8.88-23.84-11.01-6.1-1.52-12.58-1.84-18.97-1.12-10.15,1.15-20.05,3.09-29.26,7.92-5.08,2.67-9.17,6.33-13.13,10.34-5.06,5.12-9.28,10.9-13.51,16.67-2.06,2.81-4.42,5.63-3.68,9.65.99,5.4-1.34,10.25-3.26,14.97-3.19,7.8-2.06,14.7,2.84,21.27.51.68.75,1.58,1.31,2.2,2.19,2.44,1.43,4.27-.84,6.21-3.57,3.05-4.1,7.58-2.62,11.3,1.56,3.91,4.96,6.96,9.88,7.38,2.57.22,3.02-.47,1.75-2.55-.76-1.24-.8-2.52-.35-4.03,3.27,8.47,8.9,15.07,15.65,20.84,6.86,5.86,15.28,8.57,23.75,11.77-2.42.95-8.23-.01-12.1-1.81-5.59-2.6-6.45-2.29-9.29,2.76-5.77,10.27-8.81,21.25-9.69,33.01-.25,3.3.7,7.25-2.71,10.65-.98-7.47-3.03-14.12-4.61-20.89-3.23-13.77-7.13-27.35-11.21-40.88-2.13-7.06-4.58-14.08-5.95-21.3-1.14-6-5.25-7.09-9.88-7.72-5.67-.77-10.99-2.63-16.36-4.43-.97-.32-1.89-1.2-3.43-.42-.9.46-3.33-1.03-3.26-2.46.12-2.16-1.81-4.91,1.39-6.55,3.26-1.67,6.56-3.24,9.6-5.41,1.84-1.31,2.71-3.03,3.96-4.6,2.96-3.72,7.75-3.65,11.57-5.58,3.06-1.54,3.41-1.85,1.05-4.54-1.14-1.3-2.48-2.45-3.44-3.86-1.78-2.63-.56-4.81,2.63-5.07,2.47-.2,4.92-.56,7.39-.72,1.62-.1,1.73-.8,1.46-2.2-.56-2.96-2.06-5.53-3.08-8.29-1.27-3.46-.61-4.53,3.02-5.29,4.94-1.03,9.41-2.92,13.42-6.17,1.85-1.5,1.2-1.91-.13-2.77-.52-.34-1.02-.77-1.6-.93-4.95-1.36-8.37-5.26-12.72-7.62-1.1-.6-1.92-1.58-1.68-3.07.23-1.41,1.47-1.75,2.42-1.95,7.4-1.54,13.88-5.35,20.68-8.35,2.69-1.19,4.98-3.3,7.74-5.19-6.06-3.26-12.23-5.8-18.46-8.1-4.68-1.73-5.13-2.86-1.46-6.45,5.31-5.2,10.64-10.38,15.94-15.59.53-.52,1.9-.51,1.3-1.83-.46-1.02-1.41-.76-2.25-.9-7.51-1.22-14.99-2.72-22.54-3.65-3.8-.47-2.46-2.32-1.52-3.94,3.32-5.72,6.84-11.33,10.23-17.01,1.26-2.12,2.42-4.32,3.49-6.55.32-.67,1.37-1.47.42-2.28-.7-.6-1.64-.29-2.49.04-4.23,1.63-8.42,3.36-12.71,4.78-3.23,1.06-6.16,2.83-9.67,3.32-2.01.28-2.76-.18-3.15-1.81-.89-3.7-2.05-7.37-2.13-11.19-.13-6.49-.17-12.99-.08-19.48.04-2.84-.24-3.45-3.26-1.99-9.82,4.76-18.22,11.16-25.15,19.57-1.77,2.15-2.73,2.83-5.09-.37-5.99-8.12-11.8-16.54-20.22-23.43-.51,7.29-1.22,13.98-3.13,20.51-1.11,3.8-2.47,7.48-3.91,11.14-.86,2.18-2.32,1.5-3.59.63-6.86-4.75-14.74-6.63-22.75-8.17-.66-.13-1.4-1-1.96-.05-.4.68.04,1.38.46,2.06,3.9,6.36,5.67,13.48,7.31,20.66,1.16,5.11.7,5.69-4.47,6.02-9.66.62-19.31,1.49-28.97,2.22-.82.06-1.56.23-1.91.93-.49.99.6,1.17,1.08,1.64,6.36,6.24,13.1,12.12,17.3,20.24,2.31,4.46,2.05,5.71-2.22,8.54-6.45,4.28-12.82,8.69-19.28,12.95-1.3.85-1.06,1.6-.19,2.28.96.75,2.07,1.32,3.39,1.34,9.89.18,16.59,6,22.69,12.87.95,1.06.86,1.76-.22,2.77-3.7,3.51-7.59,6.8-11.11,10.52-1.13,1.19-2.08,2.61-3.19,3.8-1.79,1.91.66,2.85,2.2,3.43,4.5,1.67,9.33,2.25,13.81,4.1,3.81,1.58,4.64,2.63,3.09,6.34-1.58,3.78-1.45,7.97-3.21,11.72-1.02,2.17.59,3.02,2.49,2.86,3.33-.29,6.65-.8,9.97-1.22,2.57-.33,4.69-.67,5.26,3.17.45,2.99.36,5.92.55,8.88.1,1.68.76,2.56,2.23,1.33,1.15-.97,2.54-.71,3.75-1.39,2.89-1.62,3.58-3.27,1.16-5.87-.52-.56-1.93-1.52-.64-2.41,1.19-.83,1.68.64,2.14,1.4,3.81,6.34,9.43,10.15,16.48,12.02,2.26.6,2.56,2.28,2.69,4.33.14,2.22-1.03,3.17-2.8,3.76-9.75,3.28-19.55,6.46-29.26,9.85-3.96,1.38-3.99,5.63-4.51,8.64-1.09,6.27-3.55,12.09-5.11,18.18-1.3,5.09-2.81,10.15-4.24,15.23-.86,3.06-2.17,6-3.28,8.99-.35,0-.7,0-1.05.01Z"/>
      <path class="cls-1" d="m246.92,228.72c8.96,6.3,9.79,14.92,7.27,23.27-2.34,7.74-10.66,12.73-18.83,13.35-9.55.72-19.69-6.6-21.75-14.68-.61-2.38-.45-4.64-.45-6.94,0-2.2,1.89-1.88,3.36-1.83,7.03.23,13.83-1.01,20.57-2.95,5.14-1.49,9.69-3.34,9.83-10.21Z"/>
      <path class="cls-1" d="m285.6,264.41c-10.39.61-20.51-7.69-21.41-18.42-.43-5.2,1.45-10.33,5.27-14.34,1.39-1.46,2.39-2.02,3.1.79.61,2.41,2.64,4.02,5.02,4.96,4.98,1.96,10.11,3.14,15.43,3.83,3.94.51,7.86.7,11.8.63,1.64-.03,2.16.55,2.08,2.16-.45,9.11-4.7,16.82-15.34,19.59-2.07.54-4.2,1.5-5.96.8Z"/>
      <path class="cls-1" d="m118.56,148.95c11.86-1.14,18.92,10.73,16,19.92-.9,2.83-2.35,3.03-4.3,2.46-7.41-2.18-14.83-1.81-22.18-.12-3.19.73-4.09-.82-4.47-3.17-1.27-7.81,1.68-14.09,8.38-18.16,2.13-1.3,4.5-1.05,6.56-.93Z"/>
      <path class="cls-1" d="m143.3,163c.01-6.23.91-7.37,8.05-8.02,8.37-.76,15.99,1.86,22.47,7,2.33,1.84,1.39,5.24.3,7.93-1.08,2.67-3.37,1.71-5.11,1.28-6.66-1.66-13.46-2.25-20.26-2.63-5.45-.31-5.47-.06-5.45-5.55Z"/>
      <path class="cls-2" d="m115.71,317.34c-4.42-2.02-7.64-5.12-9.99-8.56-2.32-3.39.32-7.24,1.54-10.65,2.3-6.46,4.84-12.83,7.11-19.31,1.5-4.26,3.84-8.22,5.76-12.34.38-.82.85-1.29,1.67-.8.66.4.46,1.04.07,1.61-5.72,8.45-7.74,18.44-11.56,27.68-1.27,3.07-2.44,6.18-3.43,9.35-.69,2.21-.66,4.08,1.96,5.63,2.74,1.62,4.9,4.2,6.87,7.39Z"/>
      <path class="cls-2" d="m94.96,195.86c1.02,6,2.49,11.8,4.16,17.55,1.06,3.67,2.22,7.31,3.36,10.95.22.7.72,1.45-.39,1.77-.68.2-1.17-.15-1.37-.87-2.57-9.35-6.21-18.47-6.08-28.39,0-.34.21-.68.33-1.01Z"/>
      <path class="cls-2" d="m125.03,299.89c-1.34-8.75-.47-24.86,1.15-27.19v27.23c-.38-.01-.76-.03-1.15-.04Z"/>
      <path class="cls-2" d="m162.58,310.13c-2.42-10.81-2-21.91-3.37-32.83,2.76,10.78,3.11,21.8,3.37,32.83Z"/>
      <path class="cls-2" d="m160.7,262.12c4.5,2.57,5.93,7.48,8.87,11.29.41.53.71,1.56-.1,2-.94.52-1.05-.41-1.44-1.08-2.38-4.11-4.88-8.15-7.33-12.22Z"/>
      <path class="cls-2" d="m266.19,311.65c-5.22,1-10.5.42-15.76.41-.53,0-.99-.25-1.04-.82-.05-.61.45-.99.94-.83,5.2,1.67,10.61-.2,15.86,1.24Z"/>
      <path class="cls-2" d="m181.04,301.21c4.09,4.1,3.27,9.19-1.27,11.37-.4.19-.81.74-1.24.16-.18-.24-.23-.91-.09-1.01,3.93-2.69,3.79-6.43,2.6-10.53Z"/>
      <path class="cls-2" d="m176.71,289.66c1.79,2.05,3.45,4.12,3.73,6.96.08.82-.3,1.22-.87,1.36-.54.14-.67-.47-.94-.89-1.43-2.25-1.66-4.81-1.92-7.43Z"/>
      <path class="cls-2" d="m175.65,315.62c-1.44,1.36-2.18,3.43-4.09,4.37-.5.25-1.04.88-1.61.17-.48-.59-.21-1.17.33-1.58,1.66-1.25,2.69-3.65,5.37-2.97Z"/>
      <path class="cls-2" d="m118.67,319.33c1.64.65,2.38,1.76,1.9,3.23-.45,1.39-1.71,2.3-2.88,3.15-.19.13-.75-.02-.97-.22-.46-.44-.17-1.01.24-1.23,2.01-1.09,1.41-3.14,1.71-4.92Z"/>
      <path class="cls-2" d="m184.77,336.18c-2.63-1.44-4.67-3.42-6.32-5.81,2.87,1.11,4.54,3.57,6.32,5.81Z"/>
    </g>
  </g>
</svg>