 <svg  version="1.0" xmlns="http://www.w3.org/2000/svg"  width="50" height="50" viewBox="0 0 300.000000 307.000000"  preserveAspectRatio="xMidYMid meet">  <g transform="translate(0.000000,307.000000) scale(0.100000,-0.100000)" fill="#0bf5f5" stroke="none"> <path d="M1370 3004 c-377 -45 -671 -183 -920 -433 -253 -254 -392 -544 -431 -901 -36 -331 66 -709 268 -993 74 -105 235 -266 340 -340 166 -118 378 -210 583 -254 66 -14 130 -18 290 -18 178 0 219 3 309 23 202 46 373 118 529 225 340 233 560 574 629 977 23 130 22 355 0 490 -33 196 -124 419 -239 588 -76 111 -273 305 -387 381 -181 120 -388 204 -581 236 -95 16 -325 27 -390 19z m381 -60 c114 -19 300 -79 398 -129 326 -164 558 -415 695 -753 50 -123 69 -193 91 -343 19 -135 19 -229 -1 -371 -46 -336 -170 -586 -408 -824 -275 -274 -581 -407 -971 -421 -331 -12 -613 69 -880 251 -114 78 -258 215 -341 325 -115 152 -217 385 -260 592 -25 118 -25 391 0 514 92 461 372 831 781 1030 285 139 582 182 896 129z"/> <path d="M1380 2844 c-316 -30 -587 -159 -817 -391 -62 -62 -113 -118 -113 -124 0 -5 -8 -18 -18 -29 -10 -10 -30 -43 -46 -72 -16 -29 -42 -77 -58 -106 -16 -29 -44 -99 -63 -157 -92 -285 -86 -598 17 -875 29 -77 115 -239 146 -275 12 -14 22 -29 22 -33 0 -10 99 -124 118 -135 7 -5 9 -13 6 -19 -4 -7 -2 -8 4 -4 19 11 15 21 -30 71 -219 243 -328 530 -328 862 0 345 128 654 374 898 204 202 444 323 721 362 130 18 309 13 430 -12 443 -91 815 -416 956 -835 46 -136 58 -206 65 -365 17 -364 -105 -679 -363 -946 -51 -53 -93 -101 -93 -108 0 -19 137 113 191 184 13 17 26 32 29 35 11 10 60 79 60 84 0 3 13 27 30 54 16 26 43 81 60 122 17 41 35 84 40 95 33 70 70 292 70 422 0 136 -37 368 -69 431 -5 9 -23 53 -42 97 -18 44 -41 92 -51 107 -10 14 -18 29 -18 33 0 12 -112 166 -156 214 -35 39 -133 125 -192 169 -12 9 -28 22 -35 27 -38 31 -260 143 -311 156 -235 62 -371 78 -536 63z"/> <path d="M910 2422 c0 -52 -31 -177 -49 -195 -7 -7 -16 -6 -28 5 -21 19 -172 72 -181 63 -3 -3 4 -22 15 -43 25 -45 56 -150 50 -167 -4 -8 -48 -14 -138 -19 -73 -3 -134 -8 -136 -10 -3 -2 18 -25 46 -51 51 -47 111 -129 111 -149 0 -6 -43 -40 -95 -75 -94 -64 -104 -80 -47 -81 36 0 87 -25 131 -65 23 -21 41 -32 41 -26 0 18 -52 65 -95 86 -63 31 -63 39 -2 78 100 64 101 98 4 220 -35 46 -30 52 46 56 83 4 129 15 141 33 10 16 8 27 -21 157 -5 22 -4 23 23 17 16 -4 41 -13 56 -21 15 -7 41 -16 57 -20 26 -6 32 -2 47 27 9 18 24 64 33 103 l17 70 35 -35 c18 -20 50 -55 70 -78 20 -23 41 -42 47 -42 5 0 24 13 42 30 76 71 131 111 147 108 15 -3 19 -18 25 -89 6 -79 28 -150 46 -149 18 2 102 27 108 33 18 18 34 6 28 -20 -4 -16 -10 -30 -13 -33 -15 -12 -52 -92 -46 -98 3 -4 10 0 15 8 5 8 33 56 63 105 31 50 54 92 52 94 -2 2 -45 -13 -95 -33 -49 -20 -96 -36 -104 -36 -22 0 -28 28 -34 153 -2 64 -8 117 -12 117 -11 0 -122 -76 -156 -107 -17 -15 -36 -38 -43 -50 -6 -13 -15 -23 -20 -23 -4 0 -24 24 -43 53 -42 62 -116 147 -129 147 -5 0 -9 -21 -9 -48z"/> <path d="M1433 2013 c4 -6 28 -14 54 -18 74 -10 93 -16 93 -29 0 -7 -25 -38 -55 -69 -75 -77 -70 -91 8 -18 34 33 74 69 90 81 15 12 25 25 22 29 -2 5 -35 11 -72 15 -37 3 -86 9 -107 13 -26 4 -37 3 -33 -4z"/> <path d="M838 1910 c-45 -24 -88 -93 -88 -142 0 -23 8 -44 24 -61 22 -24 28 -25 135 -25 96 0 114 3 136 20 19 15 29 17 39 9 7 -6 64 -16 125 -23 106 -10 113 -10 131 8 11 10 22 33 26 50 18 92 -176 173 -273 113 l-35 -22 -29 32 c-55 60 -125 75 -191 41z m155 -58 c25 -26 31 -39 31 -79 l1 -48 -72 3 c-39 2 -87 -1 -106 -6 -44 -12 -57 -1 -57 51 0 33 7 46 40 79 38 38 43 40 86 35 34 -3 55 -13 77 -35z m296 -43 c31 -17 41 -29 41 -48 0 -42 -12 -52 -48 -42 -18 5 -68 13 -112 17 l-80 7 0 38 c0 25 6 42 18 49 28 17 135 5 181 -21z"/> <path d="M1490 1804 c0 -3 25 -16 55 -30 30 -14 55 -29 55 -34 0 -12 -39 -35 -107 -61 -76 -29 -83 -44 -10 -23 63 19 169 75 167 89 -1 6 -32 22 -68 37 -67 27 -92 33 -92 22z"/> <path d="M1900 1680 c-167 -22 -250 -74 -363 -229 -36 -49 -47 -72 -47 -101 0 -20 -9 -63 -20 -95 -27 -79 -25 -109 11 -168 30 -49 30 -50 11 -71 -28 -31 -33 -51 -20 -86 8 -25 51 -60 73 -60 12 0 4 28 -12 41 -15 12 -16 12 -8 -1 5 -9 0 -8 -13 4 -25 22 -29 63 -7 92 8 10 15 25 15 31 0 19 -34 93 -42 93 -14 0 -8 64 12 124 11 33 20 73 20 90 0 29 29 80 80 140 90 107 179 158 306 176 108 15 164 5 269 -46 81 -40 95 -51 144 -115 29 -39 62 -92 72 -119 25 -65 39 -213 27 -286 -6 -39 -5 -67 1 -82 18 -38 13 -71 -15 -97 -15 -14 -33 -25 -40 -25 -7 0 -18 -8 -23 -17 -5 -10 -37 -45 -70 -78 -33 -33 -61 -64 -61 -68 0 -19 94 59 127 104 19 27 41 49 48 49 24 0 63 40 70 71 5 23 2 38 -13 59 -20 26 -20 31 -6 81 11 44 12 72 3 154 -6 55 -16 114 -22 130 -14 39 -87 152 -123 190 -39 41 -169 104 -240 115 -64 11 -64 11 -144 0z"/> <path d="M1411 1630 c-1 -20 16 -40 57 -69 18 -13 31 -28 29 -35 -2 -6 -23 -21 -48 -33 -62 -31 -23 -28 50 3 64 28 73 38 44 48 -40 15 -123 71 -126 85 -4 13 -5 14 -6 1z"/> <path d="M557 1523 c-31 -31 -57 -60 -57 -63 0 -3 31 -14 68 -24 100 -26 98 -24 77 -93 -10 -32 -20 -64 -23 -72 -4 -11 8 -12 66 -6 l72 7 0 -49 c0 -27 3 -52 6 -56 9 -8 64 21 64 33 0 6 -4 10 -9 10 -11 0 -81 141 -81 165 0 10 -3 15 -7 12 -3 -4 0 -25 7 -47 7 -22 11 -42 9 -44 -2 -3 -23 -7 -47 -9 l-42 -5 5 61 c3 34 2 67 -2 74 -5 6 -31 20 -58 30 -28 10 -50 24 -50 30 0 6 17 29 38 52 20 22 37 43 37 46 0 15 -21 0 -73 -52z"/> <path d="M1411 1430 c2 -55 1 -57 -28 -65 -36 -9 -44 -22 -36 -67 5 -34 3 -39 -21 -48 -14 -5 -39 -23 -55 -39 -16 -16 -43 -37 -60 -46 -47 -24 -59 -58 -36 -100 10 -19 22 -32 27 -29 5 4 0 16 -12 29 -28 30 -14 70 30 80 18 4 43 22 61 45 24 29 43 41 80 50 l48 12 -30 38 c-17 21 -29 43 -25 48 3 5 24 12 47 15 22 3 43 8 46 11 3 3 -4 27 -16 53 l-21 48 1 -35z"/> <path d="M790 1325 c0 -13 36 -85 42 -85 5 0 8 -6 8 -14 0 -19 55 -64 102 -83 30 -12 38 -20 36 -36 -4 -25 -9 -28 -138 -68 -58 -19 -110 -38 -116 -44 -14 -12 -104 -325 -103 -357 0 -14 3 -17 6 -8 2 8 9 24 14 35 7 17 43 144 69 243 16 62 32 75 150 117 62 22 118 47 123 56 20 31 -1 69 -48 90 -57 25 -92 61 -117 116 -17 38 -28 53 -28 38z"/> <path d="M1838 1282 c-42 -36 -57 -42 -147 -52 -61 -7 -78 -13 -93 -32 -40 -52 -14 -128 65 -192 31 -25 49 -31 102 -34 56 -4 70 -1 109 22 24 14 54 42 66 61 12 19 23 35 25 35 2 0 26 -22 52 -48 79 -79 171 -89 262 -29 43 29 81 96 81 144 0 48 -34 69 -124 76 -78 6 -102 15 -149 53 -33 28 -54 21 -99 -30 -15 -17 -27 -26 -28 -20 0 15 -60 74 -76 74 -7 0 -28 -13 -46 -28z m75 -40 c25 -43 25 -127 -1 -161 -49 -66 -130 -89 -206 -57 -45 19 -84 72 -88 121 l-3 40 83 6 c98 7 160 32 168 66 8 30 24 25 47 -15z m209 -32 c18 -6 71 -14 117 -17 l83 -6 -5 -44 c-16 -144 -238 -172 -302 -38 -21 45 -14 104 17 147 l20 29 18 -29 c10 -16 33 -35 52 -42z"/> <path d="M1220 1052 c0 -17 53 -54 60 -42 8 12 103 -14 117 -33 11 -13 123 -396 144 -492 18 -82 38 -137 39 -107 0 35 -45 220 -108 434 l-57 197 -81 20 c-44 11 -88 23 -97 27 -9 3 -17 1 -17 -4z"/> <path d="M1320 909 c0 -3 13 -32 29 -65 15 -32 32 -69 36 -82 4 -13 9 -21 12 -19 3 3 -8 34 -23 69 -26 59 -54 109 -54 97z"/> <path d="M1570 908 c0 -40 82 -139 141 -169 47 -23 119 -49 139 -48 8 0 -13 10 -47 23 -53 20 -172 105 -173 125 -1 8 -60 77 -60 69z"/> <path d="M1290 874 c0 -5 4 -14 9 -19 10 -12 61 -141 61 -156 0 -5 -20 -29 -45 -51 -29 -26 -45 -49 -45 -65 0 -12 4 -23 9 -23 4 0 6 10 4 23 -3 17 7 31 41 60 25 21 46 44 46 52 0 19 -59 167 -71 180 -6 5 -9 5 -9 -1z"/> <path d="M821 710 c-1 -15 52 -71 94 -100 11 -7 -2 6 -28 30 -27 24 -53 53 -57 64 -6 14 -9 16 -9 6z"/> <path d="M2200 707 c0 -4 14 -36 31 -70 18 -34 35 -73 40 -87 l7 -25 1 24 c2 40 -20 99 -50 133 -16 18 -28 29 -29 25z"/> <path d="M1676 643 c-40 -80 -56 -146 -55 -223 l1 -65 12 80 c15 91 21 113 47 172 22 49 62 81 82 65 6 -5 23 -11 37 -12 47 -4 45 1 -5 16 -96 29 -87 31 -119 -33z"/> <path d="M1352 632 c-58 -52 -58 -49 3 -92 18 -13 17 -11 -2 10 -12 14 -23 29 -23 34 -1 4 17 28 41 52 56 57 48 55 -19 -4z"/> <path d="M848 621 c18 -17 30 -36 27 -41 -3 -6 1 -10 9 -10 26 0 18 15 -26 49 l-43 33 33 -31z"/> </g> </svg>